<svg width="32" height="32" viewBox="0 0 32 32" fill="none" xmlns="http://www.w3.org/2000/svg">
  <!-- Background circle with gradient -->
  <defs>
    <linearGradient id="bgGradient" x1="0%" y1="0%" x2="100%" y2="100%">
      <stop offset="0%" style="stop-color:#4B7BEC;stop-opacity:1" />
      <stop offset="100%" style="stop-color:#FF6F61;stop-opacity:1" />
    </linearGradient>
    <linearGradient id="dataGradient" x1="0%" y1="0%" x2="100%" y2="100%">
      <stop offset="0%" style="stop-color:#FFFFFF;stop-opacity:1" />
      <stop offset="100%" style="stop-color:#F0F0F0;stop-opacity:1" />
    </linearGradient>
  </defs>
  
  <!-- Main background -->
  <circle cx="16" cy="16" r="15" fill="url(#bgGradient)" stroke="#FFFFFF" stroke-width="1"/>
  
  <!-- Data visualization elements -->
  <!-- Bar chart bars -->
  <rect x="8" y="20" width="2" height="6" fill="url(#dataGradient)" rx="1"/>
  <rect x="12" y="18" width="2" height="8" fill="url(#dataGradient)" rx="1"/>
  <rect x="16" y="16" width="2" height="10" fill="url(#dataGradient)" rx="1"/>
  <rect x="20" y="14" width="2" height="12" fill="url(#dataGradient)" rx="1"/>
  <rect x="24" y="12" width="2" height="14" fill="url(#dataGradient)" rx="1"/>
  
  <!-- Data connection lines -->
  <path d="M10 22 L14 20 L18 18 L22 16 L26 14" stroke="url(#dataGradient)" stroke-width="1.5" stroke-linecap="round" opacity="0.8"/>
  
  <!-- Central data node -->
  <circle cx="16" cy="8" r="3" fill="url(#dataGradient)" stroke="#4B7BEC" stroke-width="1"/>
  
  <!-- Connection dots -->
  <circle cx="10" cy="22" r="1" fill="#4B7BEC"/>
  <circle cx="14" cy="20" r="1" fill="#4B7BEC"/>
  <circle cx="18" cy="18" r="1" fill="#4B7BEC"/>
  <circle cx="22" cy="16" r="1" fill="#4B7BEC"/>
  <circle cx="26" cy="14" r="1" fill="#4B7BEC"/>
  
  <!-- Small accent elements -->
  <circle cx="6" cy="26" r="1" fill="#FF6F61" opacity="0.7"/>
  <circle cx="26" cy="26" r="1" fill="#FF6F61" opacity="0.7"/>
</svg>
